<svg xmlns="http://www.w3.org/2000/svg" viewBox="0 0 46 37">
  <path fill="#583fcf" d="M43 3.1H0V36.9H46.1V3.1H43z"/>
  <path fill="#fff" d="M27.6 0H43v30.7H27.6zM3.1 0h15.3v30.7H3.1z"/>
  <path fill="#dfdfdf" d="M18.4 30.7H3.1v3.1h18.4v-3.1h-3.1zM39.9 30.7H24.5v3.1h-3v3.1h3.1v-3.1H43v-3.1h-3.1z"/>
  <path fill="#eee" d="M3.1 3.1H43v30.7H3.1z"/>
  <path fill="#f6f6f6" d="M18.4 3.1v27.6h3.1V0h-3.1v3.1zM24.5 0V30.7h3.1V0h-3.1z"/>
  <path fill="#583fcf" d="M15.4 9.2h3v3.1h-3zM30.8 21.5h3v3h-3z"/>
  <path fill="#aaa" d="M15.3 21.5h3.1v3.1h-3.1zM9.2 27.6H6.1v3.1h9.3v-3.1H9.2zM15.3 15.3H6.1v3.1H18.4v-3.1h-3.1zM12.3 24.6v-3.1H6.1v3.1h6.2zM27.6 9.2h3.1v3.1h-3.1zM36.9 3.1h-9.3v3.1H39.9V3.1h-3zM36.8 9.2h-3v3.1h6.1V9.2h-3.1zM36.8 15.3h-9.2v3.1H39.9v-3.1h-3.1zM36.8 21.5h3.1v3.1h-3.1zM15.3 3.1H6.1v3.1H18.4V3.1h-3.1zM30.7 27.6h-3.1v3.1h9.3v-3.1h-6.2z"/>
  <path fill="#f7b658" d="M9.2 9.2H6.1v3.1h9.3V9.2H9.2zM27.6 21.5h3.1v3.1h-3.1z"/>
</svg>
